HIERARCHY
ROOT Hips
{
    OFFSET 0.000000 0.000000 0.000000
    CHANNELS 6 Xposition Yposition Zposition Zrotation Xrotation Yrotation
    JOINT Spine
    {
        OFFSET -0.000000 7.236184 0.000000
        CHANNELS 3 Zrotation Xrotation Yrotation
        JOINT Spine1
        {
            OFFSET -0.000000 20.420147 0.000000
            CHANNELS 3 Zrotation Xrotation Yrotation
            JOINT Neck
            {
                OFFSET -0.000000 20.336288 1.848754
                CHANNELS 3 Zrotation Xrotation Yrotation
                JOINT Head
                {
                    OFFSET -0.000000 12.354461 -1.764923
                    CHANNELS 3 Zrotation Xrotation Yrotation
                    End Site
                    {
                        OFFSET -0.000000 22.061537 0.000000
                    }
                }
            }
            JOINT LeftShoulder
            {
                OFFSET 3.573296 18.396038 -0.314103
                CHANNELS 3 Zrotation Xrotation Yrotation
                JOINT LeftArm
                {
                    OFFSET 10.880760 0.000000 0.000000
                    CHANNELS 3 Zrotation Xrotation Yrotation
                    JOINT LeftForeArm
                    {
                        OFFSET 27.185530 0.000000 0.000000
                        CHANNELS 3 Zrotation Xrotation Yrotation
                        JOINT LeftHand
                        {
                            OFFSET 27.825975 0.000000 0.000000
                            CHANNELS 3 Zrotation Xrotation Yrotation
                            End Site
                            {
                                OFFSET 13.236923 0.000000 0.000000
                            }
                        }
                    }
                }
            }
            JOINT RightShoulder
            {
                OFFSET -3.474926 18.396038 -0.314103
                CHANNELS 3 Zrotation Xrotation Yrotation
                JOINT RightArm
                {
                    OFFSET -10.880760 0.000000 0.000000
                    CHANNELS 3 Zrotation Xrotation Yrotation
                    JOINT RightForeArm
                    {
                        OFFSET -27.185530 0.000000 0.000000
                        CHANNELS 3 Zrotation Xrotation Yrotation
                        JOINT RightHand
                        {
                            OFFSET -27.825975 0.000000 0.000000
                            CHANNELS 3 Zrotation Xrotation Yrotation
                            End Site
                            {
                                OFFSET -13.236923 0.000000 0.000000
                            }
                        }
                    }
                }
            }
        }
    }
    JOINT LeftUpLeg
    {
        OFFSET 8.824615 0.000000 0.000000
        CHANNELS 3 Zrotation Xrotation Yrotation
        JOINT LeftLeg
        {
            OFFSET -0.000000 -35.111282 0.000000
            CHANNELS 3 Zrotation Xrotation Yrotation
            JOINT LeftFoot
            {
                OFFSET -0.000000 -42.324711 0.000000
                CHANNELS 3 Zrotation Xrotation Yrotation
                JOINT LeftToeBase
                {
                    OFFSET -0.000000 -5.735999 13.236923
                    CHANNELS 3 Zrotation Xrotation Yrotation
                    End Site
                    {
                        OFFSET -0.000000 0.000000 3.529846
                    }
                }
            }
        }
    }
    JOINT RightUpLeg
    {
        OFFSET -8.824615 0.000000 0.000000
        CHANNELS 3 Zrotation Xrotation Yrotation
        JOINT RightLeg
        {
            OFFSET -0.000000 -35.111282 0.000000
            CHANNELS 3 Zrotation Xrotation Yrotation
            JOINT RightFoot
            {
                OFFSET -0.000000 -42.324711 0.000000
                CHANNELS 3 Zrotation Xrotation Yrotation
                JOINT RightToeBase
                {
                    OFFSET -0.000000 -5.735999 13.236923
                    CHANNELS 3 Zrotation Xrotation Yrotation
                    End Site
                    {
                        OFFSET -0.000000 0.000000 3.529846
                    }
                }
            }
        }
    }
}
MOTION
Frames:    13
Frame Time:    0.008333
2.939974    82.405579    102.448616    -0.724617    -9.331452    -173.354630    -4.468426    -13.372087    -1.832506    3.735863    -2.524810    -1.226121    3.550760    6.487485    -0.318696    6.713936    4.262174    0.060753    13.165998    -2.944680    -6.506610    -19.151510    -17.073784    -17.095102    20.846144    -33.433208    -56.161816    3.559159    -23.549149    -0.471448    -0.470312    12.321939    -10.964453    28.286856    -10.800059    -1.074890    -16.637346    -6.123847    40.893818    -24.769382    -2.489137    11.830718    9.007509    -19.337065    0.370099    0.003345    20.658533    1.965072    -9.508351    -7.457109    -16.447412    -0.060037    0.425706    0.066499    -17.381498    -5.597074    -2.928097    3.556650    8.083495    -4.297224    13.975901    -2.958044    -8.936586    -0.329375    -3.321965    0.357923    
2.454926    82.460876    102.529144    -0.631733    -9.358639    -173.622406    -4.541533    -13.114126    -2.018658    3.884919    -2.585372    -1.408718    3.847302    6.307683    -0.203153    6.581345    4.259096    0.133905    13.165202    -3.058409    -6.836800    -19.290508    -17.550722    -17.457558    20.627331    -34.819340    -58.006691    4.215802    -24.774208    -0.012619    -0.247410    12.479773    -11.091713    28.534826    -10.859468    -0.895060    -16.269129    -5.943882    39.155598    -24.519154    -2.717893    11.892426    8.827697    -19.233656    0.540313    -0.016301    20.534479    1.950012    -9.272013    -7.746578    -16.318546    0.036584    0.607491    -0.040507    -17.790075    -6.677107    -2.839850    3.717942    9.579473    -4.220583    14.513772    -2.403710    -8.920200    -0.274711    -3.808742    0.298735    
1.973764    82.527878    102.617249    -0.537027    -9.364926    -173.969498    -4.594243    -12.835934    -2.200803    4.055892    -2.647325    -1.590092    4.125777    6.151923    -0.048409    6.430216    4.279756    0.246160    13.153708    -3.153708    -7.166306    -19.469950    -18.051384    -17.827513    20.379023    -36.191307    -59.863403    4.933373    -26.005135    0.490262    -0.065186    12.608594    -11.175673    28.756100    -10.785889    -0.686551    -15.946225    -5.825881    37.571198    -24.185734    -2.930264    11.896948    8.671544    -19.087265    0.686697    -0.056942    20.386810    2.046093    -9.042407    -7.980134    -16.206694    0.128397    0.764924    -0.142129    -18.212379    -7.886447    -2.722769    3.920451    11.244122    -4.117417    15.057670    -1.782707    -8.898819    -0.213005    -4.314752    0.231807    
1.493869    82.605835    102.713715    -0.437046    -9.351429    -174.399658    -4.623212    -12.536649    -2.379991    4.241095    -2.709384    -1.771622    4.396839    6.016091    0.147407    6.262150    4.326594    0.398849    13.138239    -3.234332    -7.497302    -19.706562    -18.596725    -18.218708    20.081396    -37.547489    -61.770100    5.716964    -27.242441    1.043065    0.089076    12.707467    -11.220539    28.951788    -10.609891    -0.451546    -15.658934    -5.753091    36.145332    -23.781420    -3.121691    11.854161    8.540082    -18.896347    0.817026    -0.115965    20.211874    2.247990    -8.813889    -8.167078    -16.106655    0.216290    0.903673    -0.239363    -18.644325    -9.241258    -2.579896    4.164714    13.092445    -3.990811    15.607568    -1.090008    -8.869984    -0.143549    -4.826432    0.156341    
1.020897    82.692337    102.817688    -0.330823    -9.319910    -174.906876    -4.630760    -12.219148    -2.554603    4.441143    -2.772110    -1.951240    4.654986    5.901021    0.381114    6.085953    4.398504    0.589413    13.113905    -3.302654    -7.830601    -20.005514    -19.192850    -18.634733    19.721306    -38.860077    -63.729092    6.554296    -28.463232    1.636744    0.215292    12.778908    -11.232302    29.125753    -10.363203    -0.194837    -15.405313    -5.716541    34.905018    -23.324858    -3.287919    11.772527    8.435326    -18.665310    0.935588    -0.189506    20.012049    2.545036    -8.585827    -8.313760    -16.015596    0.299634    1.026705    -0.331526    -19.074532    -10.731215    -2.418475    4.446972    15.103227    -3.846146    16.152050    -0.335524    -8.834001    -0.066611    -5.319420    0.072604    
0.555463    82.785538    102.929306    -0.217322    -9.272423    -175.486954    -4.614817    -11.883181    -2.725534    4.644106    -2.836945    -2.130008    4.909739    5.807703    0.650103    5.903253    4.491791    0.817971    13.086090    -3.359981    -8.169197    -20.373678    -19.844875    -19.082611    19.290688    -40.117905    -65.756004    7.438842    -29.657568    2.266134    0.324831    12.826691    -11.214496    29.281963    -10.071151    0.078845    -15.182115    -5.710809    33.855778    -22.830256    -3.430876    11.660123    8.356520    -18.399191    1.046468    -0.274561    19.790812    2.927201    -8.356565    -8.428460    -15.930364    0.379296    1.138630    -0.419583    -19.497175    -12.356203    -2.247668    4.765748    17.269833    -3.684795    16.684235    0.473502    -8.793991    0.017802    -5.770902    -0.019409    
0.096996    82.883766    103.049026    -0.095882    -9.210901    -176.136261    -4.580354    -11.528619    -2.895001    4.853837    -2.901234    -2.309463    5.157255    5.731466    0.954551    5.718709    4.604587    1.082385    13.047332    -3.410898    -8.516104    -20.811949    -20.548140    -19.568686    18.787815    -41.318321    -67.863609    8.368367    -30.822809    2.927026    0.416228    12.853574    -11.173824    29.430443    -9.750259    0.368532    -14.989365    -5.735167    32.999962    -22.307375    -3.554513    11.521202    8.302032    -18.103937    1.152871    -0.368688    19.553719    3.384927    -8.125721    -8.519188    -15.848048    0.455640    1.243015    -0.503943    -19.908373    -14.118766    -2.079529    5.119769    19.589703    -3.504292    17.198668    1.327590    -8.755270    0.109794    -6.159956    -0.119809    
-0.348394    82.983810    103.175476    0.031833    -9.138222    -176.840057    -4.528157    -11.160344    -3.063372    5.058344    -2.962728    -2.489912    5.400986    5.671905    1.288889    5.534854    4.731243    1.378636    13.000939    -3.454372    -8.868030    -21.315231    -21.283949    -20.091557    18.225262    -42.445812    -70.028008    9.330139    -31.941338    3.608107    0.496574    12.860792    -11.114116    29.574411    -9.414485    0.666644    -14.830427    -5.790097    32.346310    -21.771610    -3.662759    11.361141    8.270362    -17.791651    1.256073    -0.468152    19.312508    3.900418    -7.897913    -8.592240    -15.767421    0.527576    1.340905    -0.583405    -20.299551    -15.992482    -1.930604    5.501832    22.023239    -3.303970    17.683107    2.199629    -8.724342    0.207805    -6.461552    -0.226872    
-0.798054    83.087769    103.313950    0.170764    -9.052755    -177.620773    -4.459309    -10.763658    -3.240556    5.262525    -3.020456    -2.681501    5.652700    5.624448    1.666088    5.344665    4.873100    1.718063    12.943583    -3.491541    -9.240672    -21.903963    -22.069538    -20.677422    17.584139    -43.543953    -72.339783    10.364195    -33.055710    4.333034    0.572544    12.848961    -11.037193    29.725285    -9.054376    0.983873    -14.700047    -5.880144    31.868065    -21.205875    -3.765041    11.175504    8.258583    -17.458464    1.362702    -0.574874    19.068445    4.481338    -7.665691    -8.657129    -15.681297    0.597294    1.437030    -0.660389    -20.682817    -18.050030    -1.812272    5.923798    24.660419    -3.072652    18.150814    3.104397    -8.704736    0.314792    -6.669983    -0.343789    
-1.226534    83.188080    103.456665    0.312931    -8.959680    -178.429123    -4.380525    -10.361149    -3.420100    5.451051    -3.066829    -2.876792    5.901582    5.590656    2.064806    5.157809    5.017971    2.081361    12.877958    -3.517858    -9.615397    -22.546402    -22.850006    -21.298054    16.908089    -44.554283    -74.671440    11.413923    -34.103920    5.060277    0.644889    12.819989    -10.950744    29.878872    -8.690645    1.303101    -14.606306    -6.002570    31.586943    -20.644176    -3.860612    10.975944    8.265942    -17.130993    1.470391    -0.681068    18.847347    5.079911    -7.442311    -8.716324    -15.589056    0.660142    1.523862    -0.729764    -21.034817    -20.172554    -1.747823    6.358453    27.347492    -2.823399    18.569477    3.968497    -8.697948    0.422767    -6.766315    -0.461782    
-1.640346    83.284714    103.604996    0.460152    -8.858049    -179.268097    -4.294660    -9.948676    -3.607497    5.625381    -3.098047    -3.081361    6.152826    5.568874    2.488524    4.970614    5.163250    2.471303    12.802228    -3.531154    -9.999738    -23.248587    -23.624159    -21.962589    16.197958    -45.498825    -77.052872    12.491705    -35.104710    5.796496    0.717757    12.776650    -10.857730    30.041420    -8.317698    1.631040    -14.544745    -6.157701    31.478598    -20.080313    -3.955009    10.762589    8.290438    -16.812153    1.586368    -0.785664    18.657717    5.684515    -7.223468    -8.776479    -15.483641    0.716260    1.599626    -0.791694    -21.359898    -22.378702    -1.748335    6.805550    30.110205    -2.560061    18.940472    4.782768    -8.697404    0.529056    -6.762829    -0.577878    
-2.039650    83.376602    103.758446    0.613263    -8.747534    179.868362    -4.204082    -9.527620    -3.805508    5.784201    -3.109005    -3.297975    6.407662    5.559220    2.936026    4.782365    5.304879    2.886774    12.714515    -3.528724    -10.396406    -24.010351    -24.380041    -22.671959    15.463748    -46.384792    -79.483200    13.596558    -36.061646    6.539356    0.793484    12.721686    -10.760340    30.217163    -7.931954    1.970429    -14.513663    -6.345262    31.526623    -19.514530    -4.051783    10.537385    8.331678    -16.508186    1.717680    -0.886296    18.510836    6.276746    -7.007653    -8.842600    -15.359749    0.764588    1.660833    -0.845022    -21.656397    -24.661472    -1.823378    7.259439    32.941994    -2.294616    19.257324    5.528144    -8.692677    0.628567    -6.676280    -0.686480    
-2.424960    83.463219    103.916573    0.774110    -8.627372    178.984390    -4.109289    -9.099229    -4.016757    5.925557    -3.094220    -3.529501    6.667340    5.560959    3.406984    4.592585    5.441238    3.327286    12.613365    -3.507458    -10.808054    -24.834570    -25.109154    -23.427607    14.710965    -47.217762    -81.967339    14.730098    -36.977516    7.288029    0.874393    12.657801    -10.659787    30.409643    -7.527741    2.324878    -14.510897    -6.564378    31.715168    -18.947014    -4.153357    10.301740    8.390072    -16.223373    1.871082    -0.980452    18.416151    6.842393    -6.794062    -8.918743    -15.213933    0.804200    1.705760    -0.888731    -21.922096    -27.017813    -1.977760    7.716400    35.841049    -2.043140    19.513672    6.190720    -8.672736    0.717030    -6.527103    -0.782914    
